<svg width="1280" height="832" viewBox="0 0 1280 832" fill="none" xmlns="http://www.w3.org/2000/svg">
<g clip-path="url(#clip0_1_2)">
<rect width="1280" height="832" fill="white"/>
<g clip-path="url(#paint0_diamond_1_2_clip_path)" data-figma-skip-parse="true"><g transform="matrix(0 -0.194 0.379 0 329 624)"><rect x="0" y="0" width="1005.15" height="1002.64" fill="url(#paint0_diamond_1_2)" opacity="1" shape-rendering="crispEdges"/><rect x="0" y="0" width="1005.15" height="1002.64" transform="scale(1 -1)" fill="url(#paint0_diamond_1_2)" opacity="1" shape-rendering="crispEdges"/><rect x="0" y="0" width="1005.15" height="1002.64" transform="scale(-1 1)" fill="url(#paint0_diamond_1_2)" opacity="1" shape-rendering="crispEdges"/><rect x="0" y="0" width="1005.15" height="1002.64" transform="scale(-1)" fill="url(#paint0_diamond_1_2)" opacity="1" shape-rendering="crispEdges"/></g></g><path d="M186.324 803.829C217.547 821.083 330.009 836.599 530.067 760.629C669.427 701.992 859.803 603.242 506.435 677.344C153.067 751.445 176.871 683.311 231.44 643.095C301.764 586.533 403.57 466.093 248.198 436.826C92.8254 407.56 -16.3417 479.637 -50 516.22V713.927C-4.31073 660.738 91.7943 578.957 110.7 677.344C129.606 775.73 168.993 802.662 186.324 803.829Z" data-figma-gradient-fill="{&#34;type&#34;:&#34;GRADIENT_DIAMOND&#34;,&#34;stops&#34;:[{&#34;color&#34;:{&#34;r&#34;:0.60072916746139526,&#34;g&#34;:0.020572917535901070,&#34;b&#34;:0.98750001192092896,&#34;a&#34;:0.21999999880790710},&#34;position&#34;:0.0},{&#34;color&#34;:{&#34;r&#34;:0.082864582538604736,&#34;g&#34;:0.0077083334326744080,&#34;b&#34;:0.30833333730697632,&#34;a&#34;:0.090000003576278687},&#34;position&#34;:1.0}],&#34;stopsVar&#34;:[{&#34;color&#34;:{&#34;r&#34;:0.60072916746139526,&#34;g&#34;:0.020572917535901070,&#34;b&#34;:0.98750001192092896,&#34;a&#34;:0.21999999880790710},&#34;position&#34;:0.0},{&#34;color&#34;:{&#34;r&#34;:0.082864582538604736,&#34;g&#34;:0.0077083334326744080,&#34;b&#34;:0.30833333730697632,&#34;a&#34;:0.090000003576278687},&#34;position&#34;:1.0}],&#34;transform&#34;:{&#34;m00&#34;:-4.6414115633568523e-14,&#34;m01&#34;:758.0,&#34;m02&#34;:-50.0,&#34;m10&#34;:-388.0,&#34;m11&#34;:-2.3758149310729171e-14,&#34;m12&#34;:818.0},&#34;opacity&#34;:1.0,&#34;blendMode&#34;:&#34;NORMAL&#34;,&#34;visible&#34;:true}"/>
<g clip-path="url(#paint1_diamond_1_2_clip_path)" data-figma-skip-parse="true"><g transform="matrix(0 0.2315 -0.4255 0 1053.5 184.5)"><rect x="0" y="0" width="1004.32" height="1002.35" fill="url(#paint1_diamond_1_2)" opacity="1" shape-rendering="crispEdges"/><rect x="0" y="0" width="1004.32" height="1002.35" transform="scale(1 -1)" fill="url(#paint1_diamond_1_2)" opacity="1" shape-rendering="crispEdges"/><rect x="0" y="0" width="1004.32" height="1002.35" transform="scale(-1 1)" fill="url(#paint1_diamond_1_2)" opacity="1" shape-rendering="crispEdges"/><rect x="0" y="0" width="1004.32" height="1002.35" transform="scale(-1)" fill="url(#paint1_diamond_1_2)" opacity="1" shape-rendering="crispEdges"/></g></g><path d="M1213.68 -30.0899C1178.63 -50.679 1052.37 -69.1937 827.764 21.4603C671.306 91.4322 457.572 209.27 854.295 120.845C1251.02 32.4205 1224.29 113.724 1163.03 161.714C1084.08 229.209 969.781 372.93 1144.22 407.854C1318.65 442.778 1441.21 356.768 1479 313.113V77.1901C1427.71 140.66 1319.81 238.249 1298.58 120.845C1277.36 3.44093 1233.14 -28.6966 1213.68 -30.0899Z" data-figma-gradient-fill="{&#34;type&#34;:&#34;GRADIENT_DIAMOND&#34;,&#34;stops&#34;:[{&#34;color&#34;:{&#34;r&#34;:0.60072916746139526,&#34;g&#34;:0.020572917535901070,&#34;b&#34;:0.98750001192092896,&#34;a&#34;:0.21999999880790710},&#34;position&#34;:0.0},{&#34;color&#34;:{&#34;r&#34;:0.082864582538604736,&#34;g&#34;:0.0077083334326744080,&#34;b&#34;:0.30833333730697632,&#34;a&#34;:0.090000003576278687},&#34;position&#34;:1.0}],&#34;stopsVar&#34;:[{&#34;color&#34;:{&#34;r&#34;:0.60072916746139526,&#34;g&#34;:0.020572917535901070,&#34;b&#34;:0.98750001192092896,&#34;a&#34;:0.21999999880790710},&#34;position&#34;:0.0},{&#34;color&#34;:{&#34;r&#34;:0.082864582538604736,&#34;g&#34;:0.0077083334326744080,&#34;b&#34;:0.30833333730697632,&#34;a&#34;:0.090000003576278687},&#34;position&#34;:1.0}],&#34;transform&#34;:{&#34;m00&#34;:5.2108724914222762e-14,&#34;m01&#34;:-851.0,&#34;m02&#34;:1479.0,&#34;m10&#34;:463.0,&#34;m11&#34;:2.8350573909427697e-14,&#34;m12&#34;:-47.0},&#34;opacity&#34;:1.0,&#34;blendMode&#34;:&#34;NORMAL&#34;,&#34;visible&#34;:true}"/>
</g>
<defs>
<clipPath id="paint0_diamond_1_2_clip_path"><path d="M186.324 803.829C217.547 821.083 330.009 836.599 530.067 760.629C669.427 701.992 859.803 603.242 506.435 677.344C153.067 751.445 176.871 683.311 231.44 643.095C301.764 586.533 403.57 466.093 248.198 436.826C92.8254 407.56 -16.3417 479.637 -50 516.22V713.927C-4.31073 660.738 91.7943 578.957 110.7 677.344C129.606 775.73 168.993 802.662 186.324 803.829Z"/></clipPath><clipPath id="paint1_diamond_1_2_clip_path"><path d="M1213.68 -30.0899C1178.63 -50.679 1052.37 -69.1937 827.764 21.4603C671.306 91.4322 457.572 209.27 854.295 120.845C1251.02 32.4205 1224.29 113.724 1163.03 161.714C1084.08 229.209 969.781 372.93 1144.22 407.854C1318.65 442.778 1441.21 356.768 1479 313.113V77.1901C1427.71 140.66 1319.81 238.249 1298.58 120.845C1277.36 3.44093 1233.14 -28.6966 1213.68 -30.0899Z"/></clipPath><linearGradient id="paint0_diamond_1_2" x1="0" y1="0" x2="500" y2="500" gradientUnits="userSpaceOnUse">
<stop stop-color="#9905FC" stop-opacity="0.22"/>
<stop offset="1" stop-color="#15024F" stop-opacity="0.09"/>
</linearGradient>
<linearGradient id="paint1_diamond_1_2" x1="0" y1="0" x2="500" y2="500" gradientUnits="userSpaceOnUse">
<stop stop-color="#9905FC" stop-opacity="0.22"/>
<stop offset="1" stop-color="#15024F" stop-opacity="0.09"/>
</linearGradient>
<clipPath id="clip0_1_2">
<rect width="1280" height="832" fill="white"/>
</clipPath>
</defs>
</svg>
